<svg width="231" height="149" viewBox="0 0 231 149" fill="none" xmlns="http://www.w3.org/2000/svg">
<path d="M136.245 74.0959C136.245 74.0959 147.25 54.0202 134.758 26.7769C134.758 26.7769 131.493 23.8736 127.796 29.3153C127.796 29.3153 144.947 63.3679 119.539 80.1877L136.245 74.0959Z" fill="black"/>
<path d="M98.9433 87.6974C98.9433 87.6974 77.5992 79.4171 69.6229 50.5273C69.6229 50.5273 70.253 46.2037 76.5846 47.9889C76.5846 47.9889 85.3785 85.0886 115.65 81.6056L98.9433 87.6974Z" fill="black"/>
<path d="M114.295 109.468L140.444 99.9337C146.753 97.6333 150.005 90.662 147.708 84.3629L146.145 80.0765C143.848 73.7774 136.872 70.5358 130.563 72.8362L104.415 82.3708C98.106 84.6712 94.8537 91.6425 97.1506 97.9416L98.7135 102.228C101.01 108.527 107.987 111.769 114.295 109.468Z" fill="black"/>
<path d="M136.207 77.7387L174.822 64.8704C176.329 64.3685 177.972 64.4729 179.402 65.1614C180.832 65.8499 181.937 67.0682 182.481 68.5578L183.009 70.0045C183.546 71.4789 183.493 73.104 182.861 74.5416C182.229 75.9791 181.067 77.1183 179.615 77.722L142.013 93.3694C141.252 93.6861 140.435 93.8455 139.61 93.8381C138.786 93.8307 137.972 93.6566 137.217 93.3262C136.462 92.9959 135.783 92.5161 135.219 91.916C134.655 91.3158 134.219 90.6077 133.937 89.8343L132.388 85.5883C132.113 84.8236 131.994 84.0115 132.038 83.1998C132.082 82.3881 132.288 81.5932 132.643 80.8618C132.999 80.1304 133.498 79.4774 134.11 78.941C134.722 78.4047 135.435 77.9959 136.207 77.7387V77.7387Z" fill="black"/>
<path d="M101.594 90.3598L63.7587 105.368C62.2823 105.954 61.0922 107.091 60.441 108.539C59.7897 109.986 59.7287 111.629 60.2708 113.12L60.7984 114.567C61.3362 116.041 62.4228 117.25 63.8318 117.944C65.2409 118.637 66.8639 118.76 68.363 118.288L107.211 106.059C107.998 105.812 108.726 105.408 109.352 104.871C109.978 104.335 110.489 103.678 110.854 102.939C111.219 102.2 111.431 101.396 111.476 100.573C111.521 99.7512 111.399 98.9285 111.117 98.1551L109.569 93.9091C109.287 93.1468 108.856 92.4486 108.3 91.8555C107.744 91.2625 107.074 90.7867 106.331 90.456C105.588 90.1253 104.786 89.9464 103.973 89.9299C103.159 89.9134 102.35 90.0596 101.594 90.3598V90.3598Z" fill="black"/>
<path opacity="0.2" d="M136.207 77.7387L174.822 64.8704C176.329 64.3685 177.972 64.4729 179.402 65.1614C180.832 65.8499 181.937 67.0682 182.481 68.5578L183.009 70.0045C183.546 71.4789 183.493 73.104 182.861 74.5416C182.229 75.9791 181.067 77.1183 179.615 77.722L142.013 93.3694C141.252 93.6861 140.435 93.8455 139.61 93.8381C138.786 93.8307 137.972 93.6566 137.217 93.3262C136.462 92.9959 135.783 92.5161 135.219 91.916C134.655 91.3158 134.219 90.6077 133.937 89.8343L132.388 85.5883C132.113 84.8236 131.994 84.0115 132.038 83.1998C132.082 82.3881 132.288 81.5932 132.643 80.8618C132.999 80.1304 133.498 79.4774 134.11 78.941C134.722 78.4047 135.435 77.9959 136.207 77.7387V77.7387Z" fill="#0D262B"/>
<path opacity="0.2" d="M101.594 90.3598L63.7587 105.368C62.2823 105.954 61.0922 107.091 60.441 108.539C59.7897 109.986 59.7287 111.629 60.2708 113.12L60.7984 114.567C61.3362 116.041 62.4228 117.25 63.8318 117.944C65.2409 118.637 66.8639 118.76 68.363 118.288L107.211 106.059C107.998 105.812 108.726 105.408 109.352 104.871C109.978 104.335 110.489 103.678 110.854 102.939C111.219 102.2 111.431 101.396 111.476 100.573C111.521 99.7512 111.399 98.9285 111.117 98.1551L109.569 93.9091C109.287 93.1468 108.856 92.4486 108.3 91.8555C107.744 91.2625 107.074 90.7867 106.331 90.456C105.588 90.1253 104.786 89.9464 103.973 89.9299C103.159 89.9134 102.35 90.0596 101.594 90.3598V90.3598Z" fill="#0D262B"/>
<path d="M189.165 77.1293L191.503 76.2766C194.931 75.0267 196.698 71.2387 195.45 67.816L193.991 63.8123C192.742 60.3895 188.952 58.6282 185.524 59.8781L183.185 60.7308C179.757 61.9808 177.99 65.7687 179.238 69.1914L180.698 73.1952C181.946 76.6179 185.737 78.3793 189.165 77.1293Z" fill="black"/>
<path d="M58.052 124.937L60.3905 124.085C63.8184 122.835 65.5856 119.047 64.3376 115.624L62.8777 111.62C61.6296 108.198 57.839 106.436 54.411 107.686L52.0725 108.539C48.6446 109.789 46.8774 113.577 48.1254 117L49.5853 121.003C50.8334 124.426 54.624 126.187 58.052 124.937Z" fill="black"/>
<path d="M188.933 81.3079L194.095 79.4256C195.13 79.0483 195.663 77.9049 195.286 76.8718L195.029 76.1653C194.652 75.1321 193.508 74.6005 192.473 74.9778L187.311 76.8601C186.276 77.2374 185.743 78.3808 186.119 79.4139L186.377 80.1204C186.754 81.1536 187.898 81.6852 188.933 81.3079Z" fill="black"/>
<path d="M194.002 87.9672L195.06 87.5814C196.613 87.0155 197.413 85.3004 196.848 83.7507L195.245 79.3567C194.68 77.807 192.964 77.0095 191.412 77.5754L190.354 77.9612C188.802 78.5272 188.002 80.2423 188.567 81.792L190.169 86.186C190.734 87.7357 192.45 88.5332 194.002 87.9672Z" fill="black"/>
<path d="M209.049 73.9727C198.75 77.728 190.81 81.893 191.314 83.2754C191.818 84.6579 200.576 82.7344 210.875 78.9791C221.173 75.2238 229.114 71.0588 228.61 69.6764C228.105 68.2939 219.348 70.2174 209.049 73.9727Z" fill="black"/>
<path d="M174.53 86.5594C164.232 90.3147 156.291 94.4796 156.796 95.8621C157.3 97.2446 166.057 95.321 176.356 91.5658C186.655 87.8105 194.595 83.6455 194.091 82.263C193.587 80.8806 184.829 82.8041 174.53 86.5594Z" fill="black"/>
<path d="M57.5365 129.219L62.6988 127.337C63.7335 126.96 64.2669 125.816 63.8902 124.783L63.6325 124.077C63.2558 123.043 62.1116 122.512 61.0769 122.889L55.9147 124.771C54.88 125.149 54.3465 126.292 54.7232 127.325L54.9809 128.032C55.3576 129.065 56.5018 129.597 57.5365 129.219Z" fill="black"/>
<path d="M62.6064 135.879L63.6645 135.493C65.2165 134.927 66.0167 133.212 65.4516 131.662L63.8494 127.268C63.2843 125.718 61.568 124.921 60.0159 125.487L58.9579 125.873C57.4058 126.439 56.6057 128.154 57.1707 129.703L58.7729 134.097C59.338 135.647 61.0543 136.445 62.6064 135.879Z" fill="black"/>
<path d="M77.6597 121.882C67.3609 125.637 59.4207 129.802 59.9248 131.184C60.4289 132.567 69.1864 130.643 79.4852 126.888C89.784 123.133 97.7242 118.968 97.2201 117.585C96.716 116.203 87.9585 118.126 77.6597 121.882Z" fill="black"/>
<path d="M43.1412 134.468C32.8424 138.224 24.9022 142.389 25.4063 143.771C25.9104 145.153 34.6679 143.23 44.9667 139.475C55.2655 135.719 63.2057 131.554 62.7016 130.172C62.1975 128.789 53.44 130.713 43.1412 134.468Z" fill="black"/>
<path opacity="0.2" d="M209.049 73.9727C198.75 77.728 190.81 81.893 191.314 83.2754C191.818 84.6579 200.576 82.7344 210.875 78.9791C221.173 75.2238 229.114 71.0588 228.61 69.6764C228.105 68.2939 219.348 70.2174 209.049 73.9727Z" fill="#0D262B"/>
<path opacity="0.2" d="M174.53 86.5594C164.232 90.3147 156.291 94.4796 156.796 95.8621C157.3 97.2446 166.057 95.321 176.356 91.5658C186.655 87.8105 194.595 83.6455 194.091 82.263C193.587 80.8806 184.829 82.8041 174.53 86.5594Z" fill="#0D262B"/>
<path opacity="0.2" d="M77.6597 121.882C67.3609 125.637 59.4207 129.802 59.9248 131.184C60.4289 132.567 69.1864 130.643 79.4852 126.888C89.784 123.133 97.7242 118.968 97.2201 117.585C96.716 116.203 87.9585 118.126 77.6597 121.882Z" fill="#0D262B"/>
<path opacity="0.2" d="M43.1412 134.468C32.8424 138.224 24.9022 142.389 25.4063 143.771C25.9104 145.153 34.6679 143.23 44.9667 139.475C55.2655 135.719 63.2057 131.554 62.7016 130.172C62.1975 128.789 53.44 130.713 43.1412 134.468Z" fill="#0D262B"/>
<path d="M111.007 85.7915L125.779 80.4049C127.849 79.6504 128.916 77.3636 128.162 75.2973L127.647 73.8842C126.894 71.818 124.605 70.7546 122.536 71.5092L107.763 76.8958C105.694 77.6504 104.627 79.9371 105.38 82.0034L105.896 83.4165C106.649 85.4827 108.938 86.5461 111.007 85.7915Z" fill="black"/>
<path opacity="0.2" d="M111.007 85.7915L125.779 80.4049C127.849 79.6504 128.916 77.3636 128.162 75.2973L127.647 73.8842C126.894 71.818 124.605 70.7546 122.536 71.5092L107.763 76.8958C105.694 77.6504 104.627 79.9371 105.38 82.0034L105.896 83.4165C106.649 85.4827 108.938 86.5461 111.007 85.7915Z" fill="#0D262B"/>
<path d="M111.261 89.0646C114.051 92.4654 116.858 95.8506 119.665 99.2381C120.071 99.7261 120.552 99.8603 121.164 99.6243C122.542 99.0929 123.932 98.5916 125.325 98.1052C125.942 97.8897 126.198 97.4737 126.192 96.827C126.156 92.4587 126.135 88.0922 126.089 83.7234C126.078 82.5884 125.415 82.1377 124.357 82.5089C123.12 82.9417 121.895 83.4028 120.664 83.8517C120.295 83.9864 119.909 84.1069 119.867 84.6C119.825 85.0564 120.172 85.2361 120.466 85.4515C121.582 86.2672 122.451 87.2918 123.044 88.5595C123.307 89.1251 123.162 89.4896 122.604 89.6947C121.821 89.984 121.034 90.2674 120.249 90.5535C120.25 90.5551 120.25 90.5567 120.25 90.5567C119.491 90.8336 118.736 91.1217 117.973 91.3836C117.151 91.6666 116.857 91.4934 116.67 90.6101C116.395 89.3088 116.426 88.0162 116.737 86.7291C116.959 85.8043 116.537 85.3803 115.677 85.6793C114.361 86.1338 113.05 86.6081 111.753 87.1156C110.815 87.4832 110.611 88.2721 111.261 89.0646ZM120.644 94.5815C120.851 93.9882 120.98 93.4127 120.895 92.7656C120.816 92.1621 121.157 92.0231 121.68 92.2591C122.589 92.6728 123.111 93.8603 122.798 94.9243C122.621 95.5208 122.46 96.0845 122.567 96.7398C122.652 97.2649 122.296 97.4474 121.817 97.2137C121.292 96.9605 120.907 96.5595 120.692 95.9454C120.503 95.5279 120.481 95.0399 120.644 94.5815Z" fill="white"/>
</svg>
